<svg xmlns="http://www.w3.org/2000/svg" width="24" height="40" viewBox="0 0 24 40">
  <path fill="#485C6A" d="M18.1773116,13.3881088 C18.1773116,13.3881088 18.9897054,13.6537198 18.9897054,17.4291905 C18.9897054,18.2323475 17.6378314,18.5042826 17.6378314,18.5042826 C17.6378314,18.5042826 15.4735635,22.8109752 11.9637683,22.8109752 C8.45397315,22.8109752 6.28970525,18.5042826 6.28970525,18.5042826 C6.28970525,18.5042826 4.93783116,18.2386716 4.93783116,17.4291905 C4.93783116,13.6600439 5.75022498,13.3881088 5.75022498,13.3881088 C5.75022498,9.88457328 8.1810596,8 11.9637683,8 C15.746477,8 18.1773116,9.88457328 18.1773116,13.3881088 Z M16.5588708,16.942237 C17.2062471,16.942237 16.882559,14.5707102 11.9637683,14.5707102 C7.04497762,14.5707102 6.72128946,16.942237 7.36866578,16.942237 C7.36866578,16.942237 7.8954524,17.2900609 7.90814605,18.7762177 C7.92718653,20.660791 11.9637683,20.932726 11.9637683,20.932726 C11.9637683,20.932726 16.0193906,20.660791 16.0193906,18.7762177 C16.0193906,17.1762276 16.5588708,16.942237 16.5588708,16.942237 Z M23.5149929,26.3840756 L23.9275366,29.166667 L-4.4941828e-13,29.166667 L0.412543735,26.3840756 C1.09165419,23.0133455 6.28970525,22.2734292 6.28970525,22.2734292 C7.64157933,24.6955485 11.9637683,24.9674836 11.9637683,24.9674836 C11.9637683,24.9674836 16.2859573,24.6955485 17.6378314,22.2734292 C17.6378314,22.2734292 22.8358824,23.0133455 23.5149929,26.3840756 Z M18.8754626,23.677373 L18.5835085,24.5311227 L21.1793607,25.4228167 L21.4713147,24.5690671 L18.8754626,23.677373 Z M5.69310354,23.677373 L3.09725142,24.5690671 L3.38920545,25.4228167 L5.98505757,24.5311227 L5.69310354,23.677373 Z"/>
</svg>
