<svg xmlns="http://www.w3.org/2000/svg" width="28" height="40" viewBox="0 0 28 40">
  <path fill="#334811" d="M21.2878463,30.8274382 L22.0082671,27.9624128 C22.262186,26.9543482 22.3802877,25.9993397 22.3802877,24.9559045 L22.3802877,23.6000283 L26.8031995,23.6000283 L26.8031995,24.4842954 C26.8031995,25.8224863 26.6083315,27.0250896 26.1831651,28.2984343 L25.3387374,30.8333333 L21.2878463,30.8333333 L21.2878463,30.8274382 Z M6.34206571,23.6059234 L21.1579343,23.6059234 L20.7445781,27.1312017 L6.75542195,27.1312017 L6.34206571,23.6059234 Z M6.30663517,27.7560838 L8.47970797,27.7560838 L8.4088469,28.5519242 L6.86171355,30.6328995 L6.30663517,27.7560838 Z M0.702705604,23.6059234 L5.12561735,23.6059234 L5.12561735,24.9617997 C5.12561735,25.9993397 5.24371913,26.9602434 5.49763796,27.9683079 L6.21805884,30.8333333 L2.16126262,30.8333333 L1.31683487,28.2984343 C0.891668456,27.0250896 0.696800515,25.8283814 0.696800515,24.4901905 L0.696800515,23.6059234 L0.702705604,23.6059234 Z M27.5,22.9751462 L21.6480567,22.9751462 C21.6480567,22.9751462 21.069358,20.7055273 20.939446,20.5168836 L20.3253167,19.6503018 L21.0103071,22.9751462 L6.36568606,22.9751462 L7.18649345,19.6503018 L6.58417436,20.487408 C6.44245222,20.6819468 5.72203135,22.9751462 5.72203135,22.9751462 L1.13686838e-13,22.9751462 L0.360210436,20.8646953 C0.507837664,20.0040087 1.28730943,19.6208263 2.0608761,19.4439728 L25.4391239,19.4439728 C26.2126906,19.6208263 26.9980674,20.0099038 27.1397896,20.8646953 L27.5,22.9751462 Z M19.0439124,27.9034616 L21.2169852,27.9034616 L20.6619068,30.7802773 L19.1147735,28.699302 L19.0439124,27.9034616 Z M22.8940305,14.6748255 L23.1892849,15.836163 L22.8940305,17.233305 L22.5220099,18.5125448 L4.98389521,18.5125448 L4.6118746,17.233305 L4.31662014,15.836163 L4.6118746,14.6748255 L4.98389521,13.3955857 L12.0168563,13.3955857 C12.0227614,13.4722222 12.0286665,13.5547538 12.0463818,13.6313903 L12.2176294,14.8988398 C12.0759072,15.1523297 11.9873309,15.4411903 11.9873309,15.7536314 C11.9873309,16.7322203 12.7786128,17.5221656 13.7588576,17.5221656 C14.7391024,17.5221656 15.5303844,16.7322203 15.5303844,15.7536314 C15.5303844,15.4411903 15.441808,15.1523297 15.3000859,14.8988398 L15.4713335,13.6313903 C15.4890487,13.5547538 15.4890487,13.4722222 15.5008589,13.3955857 L22.5220099,13.3955857 L22.8940305,14.6748255 Z M13.7529525,12.0043388 C14.3966073,12.0043388 14.9221602,12.529004 14.9221602,13.1715714 C14.9221602,13.8141388 14.3966073,14.338804 13.7529525,14.338804 C13.1092978,14.338804 12.5837449,13.8141388 12.5837449,13.1715714 C12.5837449,12.529004 13.1092978,12.0043388 13.7529525,12.0043388 Z M12.4892635,14.5687135 C12.8671892,14.8163082 13.3100709,14.9518959 13.7706678,14.9518959 C14.2312648,14.9518959 14.6741464,14.8163082 15.0520721,14.5687135 L14.6682414,16.3077721 C14.4733734,16.6143181 14.1367833,16.8029617 13.7706678,16.8029617 C13.4045523,16.8029617 13.0679622,16.6143181 12.8730943,16.3077721 L12.4892635,14.5687135 Z M15.1229332,12.0514997 L20.0182521,12.0514997 L20.0182521,12.8650255 L15.5008589,12.8650255 C15.4477131,12.5584795 15.3118961,12.2814092 15.1229332,12.0514997 Z M11.9991411,12.8650255 L7.74157183,12.8709206 L7.74157183,11.237974 L11.3023406,11.237974 L11.3023406,10 L13.0384368,10 L13.0384368,11.237974 L13.0384368,11.5445199 C12.9144299,11.5975759 12.7963281,11.6683173 12.6900365,11.7508489 C12.6782263,11.7626391 12.6605111,11.7744294 12.6487009,11.7862196 C12.5365042,11.8746463 12.4302126,11.9748632 12.3416362,12.0927655 C12.3416362,12.0927655 12.3357312,12.0986606 12.3357312,12.0986606 C12.1703887,12.3167799 12.0463818,12.5761649 11.9991411,12.8650255 Z"/>
</svg>
