<svg xmlns="http://www.w3.org/2000/svg" width="21" height="40" viewBox="0 0 21 40">
  <path fill="#485C6A" d="M19.3276613,20.5622851 C19.9964385,21.0883364 20.423427,21.872256 20.4285714,22.7335361 C20.4285714,24.3220048 19.0189949,25.6061888 17.2750297,25.6061888 C16.7400079,25.6061888 16.2409972,25.4875694 15.8037198,25.2761174 L16.776019,29.5 L12.7530669,29.5 L13.6842105,25.1626554 C13.257222,25.3947368 12.7530669,25.5288284 12.2180451,25.5288284 C10.6335576,25.5288284 9.35259201,24.3632637 9.35259201,22.9243586 C9.35259201,22.2126422 9.67154729,21.5628141 10.1808469,21.0934938 C9.71270281,20.5829146 9.43490305,19.9227718 9.43490305,19.2058979 C9.43490305,17.684475 10.6952909,16.4312351 12.3157895,16.2610421 C12.6656114,15.3481883 13.6224772,14.6932029 14.7439652,14.6932029 C15.8500198,14.6932029 16.7914523,15.3275588 17.1567076,16.2197831 C17.2544519,16.2094684 17.3573407,16.204311 17.4602295,16.204311 C18.9829838,16.204311 20.2176494,17.3286168 20.2176494,18.7159482 C20.2176494,19.4431367 19.8729719,20.1032796 19.3276613,20.5622851 Z M11.8167788,29.4329542 L3.27186387,29.4329542 L3.27186387,21.3771489 L4.36983782e-13,21.3771489 L4.36983782e-13,20.3663052 L9.97506925,10 L13.725366,13.8886538 C12.871389,14.13105 12.1357341,14.6725734 11.6933122,15.4049193 C9.84131381,15.822666 8.5037594,17.3698757 8.5037594,19.1852684 C8.5037594,19.8299392 8.67867036,20.4642952 9.00277008,21.026448 C8.62208152,21.5834435 8.42144836,22.2332716 8.42144836,22.9088865 C8.42144836,24.8583708 10.1191136,26.4416821 12.2077562,26.4416821 C12.2952117,26.4416821 12.3775228,26.4416821 12.4598338,26.4365247 L11.8476454,29.2937054 L11.8167788,29.4329542 Z"/>
</svg>
