<svg xmlns="http://www.w3.org/2000/svg" width="19" height="40" viewBox="0 0 19 40">
  <path fill="#485C6A" d="M5.64053114,19.0600158 C5.19000948,19.0600158 4.89566867,18.9878068 4.76952261,18.8554236 C4.56528612,18.6508314 4.57129308,18.1273159 4.57730003,17.4593824 C4.57730003,17.3330166 4.57730003,17.2066508 4.57730003,17.0682502 L4.57730003,16.1114806 C4.57730003,15.0764846 7.13025609,13.2532067 8.99241227,13.2532067 L9.94151122,13.2532067 C11.8036674,13.2532067 14.3566235,15.0764846 14.3566235,16.1114806 L14.3566235,17.0682502 C14.3566235,17.2066508 14.3566235,17.3330166 14.3566235,17.4593824 C14.3626304,18.1273159 14.3686374,18.6508314 14.1644009,18.8554236 C14.0322479,18.9938242 13.7379071,19.0600158 13.2873854,19.0600158 L5.64053114,19.0600158 Z M13.4375593,22.6885194 C13.9721783,22.6885194 14.4046791,23.1217736 14.3986721,23.6513064 L14.3986721,26.8465558 C14.3986721,27.3760887 13.9661714,27.8093428 13.4375593,27.8093428 L5.53240594,27.8093428 C5.00379387,27.8093428 4.57129308,27.3760887 4.57129308,26.8465558 L4.57129308,23.6513064 C4.57129308,23.1217736 5.00379387,22.6885194 5.53240594,22.6885194 L13.4375593,22.6885194 Z M18.0749289,21.6475059 C18.3752766,21.9423595 18.6335757,22.2071259 19,22.5802059 L19,27.7612035 C18.465381,28.2967538 18.1530193,28.6096595 17.6304142,29.133175 C17.6123933,29.4220111 17.5943724,29.578464 17.5823585,29.5724466 C17.107809,30.3125891 16.2848561,30.8 15.3417641,30.8 L3.55611761,30.8 C2.61302561,30.8 1.79007272,30.3125891 1.31552324,29.5724466 C1.30350933,29.578464 1.2794815,29.3798892 1.26146064,29.0248614 C0.798925071,28.5615202 0.492570345,28.2546318 -5.55999691e-13,27.7612035 L-5.55999691e-13,22.5802059 C0.35441037,22.2251781 0.612709453,21.9664291 0.895036358,21.6836105 L0.895036358,14.9320665 C0.895036358,14.0174188 1.15333544,13.1569279 1.59785014,12.4228029 L1.47771103,12.1700713 C1.14732849,11.4780681 1.43566235,10.6416469 2.12646222,10.3046714 L3.24976288,9.7570863 C3.83844451,9.4682502 4.52924439,9.64275534 4.9317104,10.1241489 C5.2020234,10.0760095 5.4843503,10.0459224 5.77268416,10.0459224 L6.34935188,10.0459224 L6.34935188,9.853365 C6.34935188,8.84243864 7.16029086,8.01203484 8.16945937,8 C8.17546633,8 8.17546633,8 8.18147328,8 C8.18147328,8 8.18748024,8 8.18748024,8 C8.18748024,8 8.1934872,8 8.1934872,8 C8.19949415,8 8.19949415,8 8.19949415,8 L10.7043946,8 C11.725577,8 12.5545368,8.8304038 12.5545368,9.853365 L12.5545368,10.0459224 L13.1972811,10.0459224 C13.4675941,10.0459224 13.7258931,10.0699921 13.9781853,10.112114 C14.3746443,9.63673793 15.0654442,9.4682502 15.6481189,9.75106888 L16.7714195,10.298654 C17.4622194,10.6356295 17.7565602,11.4720507 17.4201707,12.1640538 L17.3300664,12.3505938 C17.7986089,13.0967538 18.0749289,13.9813143 18.0749289,14.9260491 L18.0749289,21.6475059 Z M7.68890294,9.84133017 L7.68890294,10.0338876 L11.2149858,10.0338876 L11.2149858,9.84133017 C11.2149858,9.55851148 10.9867215,9.32984956 10.7043946,9.32984956 L8.19949415,9.32984956 C7.91716725,9.32984956 7.68890294,9.55851148 7.68890294,9.84133017 Z M3.71229845,17.4473476 C3.70028454,18.3138559 3.69427758,18.9998416 4.1508062,19.4631829 C4.46316788,19.7760887 4.9317104,19.9205067 5.64053114,19.9205067 L13.2813784,19.9205067 C13.9841922,19.9205067 14.4587417,19.7760887 14.7711034,19.4631829 C15.221625,19.0058591 15.2156181,18.3198733 15.2096111,17.453365 C15.2096111,17.3269992 15.2096111,17.2006334 15.2096111,17.0682502 L15.2096111,16.1114806 C15.2096111,14.1498021 11.6294657,12.3927158 9.93550427,12.3927158 L8.98640531,12.3927158 C7.29845084,12.3927158 3.71229845,14.1498021 3.71229845,16.1114806 L3.71229845,17.0622328 C3.71229845,17.194616 3.71229845,17.3269992 3.71229845,17.4473476 Z M15.2636737,26.8525732 L15.2636737,23.6573238 C15.2636737,22.6463975 14.4407208,21.8280285 13.4375593,21.8280285 L5.53240594,21.8280285 C4.52323743,21.8280285 3.7062915,22.6524149 3.7062915,23.6573238 L3.7062915,26.8525732 C3.7062915,27.8634996 4.52924439,28.6818686 5.53240594,28.6818686 L13.4375593,28.6818686 C14.4467278,28.6818686 15.2636737,27.8574822 15.2636737,26.8525732 Z"/>
</svg>
