<svg xmlns="http://www.w3.org/2000/svg" width="22" height="40" viewBox="0 0 22 40">
  <path fill="#DB7700" d="M20.2260625,10.7656255 L21.6,11.5554333 C21.6,11.5554333 21.5939206,12.0136424 21.3629046,12.5080259 C21.0954123,13.0687291 20.7792851,13.2978337 20.7792851,13.2978337 L19.3384745,12.7612467 C19.0588235,13.0928454 18.7244582,13.3641534 18.359696,13.5751708 L18.5542359,15.0944957 C18.5542359,15.0944957 18.1833943,15.3597746 17.6423304,15.4743269 C17.0343935,15.6009373 16.6574726,15.4863851 16.6574726,15.4863851 L16.2379961,14.0755833 C15.8489164,14.0574961 15.4537574,13.9670601 15.0768365,13.8223625 L14.0251055,14.9558271 C14.0251055,14.9558271 13.5752322,14.8473039 13.143597,14.5096762 C12.6450887,14.1238159 12.4931044,13.7681009 12.4931044,13.7681009 L13.3502955,12.4778805 C13.1496763,12.1945144 12.9916127,11.887032 12.8761047,11.5674914 L11.2650718,11.4167647 C11.2650718,11.4167647 11.0826907,11.0007591 11.0887701,10.452114 C11.0948494,9.83112006 11.2893892,9.4934923 11.2893892,9.4934923 L12.7788348,9.39099816 C12.863946,9.0714576 12.9916127,8.75191704 13.1679144,8.44443461 L12.2985646,7.11201077 C12.2985646,7.11201077 12.5174219,6.70806327 12.9551365,6.37646458 C13.4475654,6.00266241 13.8366451,5.94237174 13.8366451,5.94237174 L14.7607093,6.95525503 C15.1376302,6.77438301 15.5388686,6.6477726 15.9522657,6.593511 L16.3778216,5.0500698 C16.3778216,5.0500698 16.8216155,4.94154659 17.3626794,5.04404074 C17.9766958,5.15859301 18.2806642,5.40578477 18.2806642,5.40578477 L18.1165212,6.94319689 C18.2077118,6.99142943 18.2989023,7.0336329 18.3900929,7.0878945 C18.7183788,7.28082465 19.0101886,7.51595827 19.2533634,7.78123723 L20.7245708,7.19038864 C20.7245708,7.19038864 21.0771742,7.47978387 21.3264284,7.96813831 C21.6121587,8.52281249 21.5939206,8.90867278 21.5939206,8.90867278 L20.2078244,9.74671312 C20.2625387,10.0783118 20.2686181,10.4219686 20.2260625,10.7656255 Z M18.1226006,11.3022124 C18.6697439,10.3857942 18.3657754,9.21012614 17.4477906,8.67353917 C16.5298058,8.13092312 15.3443287,8.43237648 14.7971855,9.34276562 C14.2500422,10.2531548 14.5540107,11.4288229 15.4719955,11.9714389 C16.3899803,12.5140549 17.5754574,12.2126016 18.1226006,11.3022124 Z M15.2713763,24.0295732 L17.4234731,25.5911016 C17.4234731,25.5911016 17.2593301,26.5135489 16.6635519,27.508345 C15.9887419,28.6357805 15.33217,29.0879606 15.33217,29.0879606 L12.9186603,27.9665541 C12.3411202,28.4247632 11.7027864,28.7925363 11.021897,29.039728 L10.7665635,31.6684013 C10.7665635,31.6684013 9.87897551,32 8.71173656,32 C7.38035463,32 6.65690965,31.6684013 6.65690965,31.6684013 L6.40157613,29.039728 C6.03073459,28.9010595 5.65989305,28.7382747 5.30728961,28.5272573 C5.06411483,28.3885888 4.84525753,28.231833 4.63247959,28.0690482 L2.24936673,29.2507454 C2.24936673,29.2507454 1.49552491,28.677984 0.875429215,27.7012751 C0.170222347,26.5858977 0.066873065,25.802119 0.066873065,25.802119 L2.18249367,24.186329 C2.00619195,23.3543177 1.99403321,22.486132 2.15209682,21.6360336 L-1.59872116e-14,20.0745052 C-1.59872116e-14,20.0745052 0.164142978,19.1520579 0.759921193,18.1572618 C1.43473121,17.0298262 2.09130312,16.5776462 2.09130312,16.5776462 L4.50481283,17.6990527 C5.08235294,17.2408436 5.72068674,16.8730705 6.40157613,16.6258787 L6.65690965,13.9972055 C6.65690965,13.9972055 7.54449761,13.6656068 8.71173656,13.6656068 C10.0431185,13.6656068 10.7665635,13.9972055 10.7665635,13.9972055 L11.021897,16.6258787 C11.3927385,16.7645473 11.7635801,16.9273321 12.1161835,17.1383495 C12.3593583,17.277018 12.5782156,17.4337737 12.7909935,17.5965586 L15.1741064,16.4148614 C15.1741064,16.4148614 15.9279482,16.9876228 16.5480439,17.9643317 C17.2532508,19.0797091 17.3566001,19.8634878 17.3566001,19.8634878 L15.2409795,21.4792778 C15.4172812,22.3112891 15.4294399,23.1794747 15.2713763,24.0295732 Z M11.6359133,24.5541021 C12.5964537,22.9503702 12.0614692,20.8763711 10.4443569,19.9298075 C8.82724458,18.9772149 6.74202083,19.5077728 5.78148044,21.1115047 C4.82094005,22.7152366 5.35592457,24.7832066 6.97303687,25.7357992 C8.59014917,26.6883918 10.6753729,26.1578339 11.6359133,24.5541021 Z"/>
</svg>
