<svg xmlns="http://www.w3.org/2000/svg" width="25" height="40" viewBox="0 0 25 40">
  <path fill="#C21411" fill-rule="evenodd" d="M12.4993701,29.818853 C6.25850426,29.818853 1.17988711,24.7414957 1.17988711,18.4993701 C1.17988711,12.2578743 6.25850426,7.17988711 12.4993701,7.17988711 C18.7408658,7.17988711 23.8194829,12.2578743 23.8194829,18.4993701 C23.8194829,24.7414957 18.7408658,29.818853 12.4993701,29.818853 Z M12.5,6 C5.59643199,6 0,11.596432 0,18.4993701 C0,25.4029381 5.59643199,30.9987401 12.5,30.9987401 C19.4029381,30.9987401 25,25.4029381 25,18.4993701 C25,11.596432 19.4029381,6 12.5,6 Z M15.2232525,21.2232525 L15.2232525,26.3988812 L9.77611752,26.3988812 L9.77611752,21.2232525 L4.60111878,21.2232525 L4.60111878,15.7761175 L9.77611752,15.7761175 L9.77611752,10.6011188 L15.2232525,10.6011188 L15.2232525,15.7761175 L20.3988812,15.7761175 L20.3988812,21.2232525 L15.2232525,21.2232525 Z M12.4993701,8.32323741 C6.88844933,8.32323741 2.32323741,12.8878194 2.32323741,18.4993701 C2.32323741,24.1109207 6.88844933,28.6761326 12.4993701,28.6761326 C18.1109207,28.6761326 22.6761326,24.1109207 22.6761326,18.4993701 C22.6761326,12.8878194 18.1109207,8.32323741 12.4993701,8.32323741 Z"/>
</svg>
