<svg xmlns="http://www.w3.org/2000/svg" width="25" height="40" viewBox="0 0 25 40">
  <path fill="#537D6C" d="M10.986755,30.9006886 C10.5562914,30.8477225 10.1324503,30.7748941 9.71523179,30.6822034 L9.71523179,19.7314619 L6.40397351,19.7314619 C6.09271523,18.8177966 5.23178808,18.1623411 4.21192053,18.1623411 C2.93377483,18.1623411 1.89403974,19.2018008 1.89403974,20.4796081 C1.89403974,21.7574153 2.93377483,22.796875 4.21192053,22.796875 C5.35099338,22.796875 6.29801325,21.9626589 6.49006623,20.8768538 L8.56953642,20.8768538 L8.56953642,30.3644068 C3.59602649,28.7158369 -4.08562073e-14,24.0283369 -4.08562073e-14,18.5 C-4.08562073e-14,17.9637182 0.0331125828,17.4472987 0.0993377483,16.9308792 L10.986755,16.9308792 L10.986755,30.9006886 Z M12.5033113,6 C19.4039735,6 25,11.5945445 25,18.5 C25,23.829714 21.6622517,28.378178 16.9668874,30.1724047 L16.9668874,17.8246822 L18.9668874,17.8246822 C19.205298,18.8509004 20.1192053,19.6189089 21.218543,19.6189089 C22.4966887,19.6189089 23.5364238,18.5794492 23.5364238,17.3016419 C23.5364238,16.0238347 22.4966887,14.984375 21.218543,14.984375 C20.1523179,14.984375 19.2582781,15.6994174 18.986755,16.6792903 L15.8211921,16.6792903 L15.8211921,30.5365466 C15.410596,30.6557203 14.9801325,30.748411 14.5496689,30.8212394 L14.5496689,11.581303 L11.3708609,11.581303 C11.1125828,10.5815678 10.205298,9.84004237 9.12582781,9.84004237 C7.84768212,9.84004237 6.80794702,10.8795021 6.80794702,12.1573093 C6.80794702,13.4351165 7.84768212,14.4745763 9.12582781,14.4745763 C10.2119205,14.4745763 11.1192053,13.7330508 11.3708609,12.7333157 L13.410596,12.7333157 L13.410596,30.9668962 C13.1059603,30.9867585 12.807947,31 12.5033113,31 C12.3774834,31 12.2582781,30.9933792 12.1324503,30.9867585 L12.1324503,15.7921081 L0.298013245,15.7921081 C1.53642384,10.1909428 6.52980132,6 12.5033113,6 Z"/>
</svg>
