<svg xmlns="http://www.w3.org/2000/svg" width="40" height="40" viewBox="0 0 40 40">
  <path fill="#2F84B0" d="M39.8034555,22.452183 C40.0417015,22.8497921 40.0647576,23.3097713 39.8649383,23.8087318 C39.6651191,24.3232848 39.2347392,24.5961538 38.7736178,24.5025988 C38.496945,24.4480249 38.3124965,24.268711 38.1741601,24.1361746 L38.1049919,24.0738046 L35.1153885,24.3232848 C34.8310303,24.3466736 34.5389868,24.3622661 34.2546287,24.3856549 C33.9933266,24.7286902 33.6935977,24.783264 33.5245199,24.783264 C33.3477567,24.783264 33.0941399,24.7286902 32.8558939,24.4714137 C32.2871776,24.4870062 31.7107759,24.4870062 31.1343742,24.4948025 L31.0959475,24.4948025 C31.5263274,24.8378378 31.7799441,25.3601871 31.7799441,25.9293139 C31.7799441,26.9428274 30.9652964,27.7692308 29.9662002,27.7692308 C28.9671039,27.7692308 28.1524562,26.9428274 28.1524562,25.9293139 C28.1524562,25.3679834 28.406073,24.8456341 28.8210822,24.5025988 L25.0168311,24.5883576 C24.9860897,24.7053015 24.9169215,24.8300416 24.8016411,24.9391892 L24.755529,24.9781705 C24.5249683,25.1808732 23.4490185,25.718815 23.2568846,25.7733888 C22.0656545,26.1008316 20.8897951,26.3892931 19.6370821,26.3503119 C18.5611323,26.3113306 17.5543507,26.0618503 16.4399741,25.7655925 L16.2094135,25.7032225 C16.2094135,25.7032225 15.3332829,25.3445946 15.0566101,25.0639293 C14.902903,24.9158004 14.8029934,24.7598753 14.7415105,24.5883576 L10.9218887,24.5025988 C11.3368979,24.8456341 11.5905147,25.3679834 11.5905147,25.9293139 C11.5905147,26.9428274 10.775867,27.7692308 9.77677072,27.7692308 C8.77767448,27.7692308 7.96302678,26.9428274 7.96302678,25.9293139 C7.96302678,25.3523909 8.22432887,24.8300416 8.64702344,24.4870062 C8.0629364,24.47921 7.46347866,24.4714137 6.87170627,24.4714137 C6.67188702,24.6663202 6.4490117,24.7676715 6.20308032,24.7676715 C6.00326107,24.7676715 5.72658827,24.6975052 5.48834224,24.3856549 C4.85814307,24.3388773 3.23653302,24.1673597 3.23653302,24.1673597 L1.83011292,24.0660083 L1.7993715,24.0971933 C1.64566439,24.2453222 1.44584514,24.4402287 1.15380162,24.4948025 C0.623512077,24.5961538 0.123963956,24.1985447 0.0394250429,23.6294179 C0.000998264382,23.3799376 -0.0374285142,23.0057173 0.0701664658,22.6470894 C0.185446801,22.2572765 0.592770654,21.9142412 0.984723795,21.8908524 C0.992409151,21.8908524 0.992409151,21.8908524 0.992409151,21.8908524 C1.36130622,21.8908524 1.58418154,22.0857588 1.73788865,22.210499 C1.75325937,22.2260915 1.7993715,22.272869 1.84548363,22.3118503 C2.85995059,22.272869 10.6529013,21.9376299 12.5511841,21.8986486 C12.5434988,21.8986486 13.4657415,21.6101871 14.2727038,21.3607069 C14.902903,21.1580042 15.2103172,21.0644491 15.3717097,21.0176715 C15.7098653,19.9495842 16.3861766,19.3726611 17.4390704,18.7567568 L17.4390704,18.2577963 C17.4390704,17.1507277 18.1691792,16.222973 19.1529047,15.9111227 L19.1913315,13.3695426 L19.2528143,7.86538462 L19.2528143,7.7952183 C19.2528143,7.1481289 19.5832846,7.00779626 19.8599574,7 L19.8676428,7 C20.0982034,7 20.2365398,7.09355509 20.3133934,7.17151767 C20.4978419,7.36642412 20.4978419,7.62370062 20.4901566,7.7952183 C20.4901566,7.81860707 20.4901566,7.8497921 20.4901566,7.87318087 C20.520898,9.67411642 20.5439541,13.3539501 20.5746955,15.1548857 L20.5900662,15.9111227 C21.5737917,16.222973 22.3039005,17.1507277 22.3039005,18.2577963 L22.3039005,18.764553 C23.3106821,19.3492723 24.0331056,19.9573805 24.3712612,21.0098753 C24.9246068,21.1813929 26.9304847,21.8206861 27.1994721,21.9064449 L37.0213567,22.2494802 C37.935914,22.2806653 37.7975776,22.2962578 38.0819358,22.3274428 C38.258699,22.0935551 38.5737986,21.8830561 38.8965835,21.8830561 L38.9580663,21.8830561 C39.3192781,21.9142412 39.642063,22.1871102 39.8034555,22.452183 Z M9.78445608,27.0441788 C10.1456678,27.0441788 10.4377113,26.747921 10.4377113,26.3814969 C10.4377113,26.0150728 10.1456678,25.718815 9.78445608,25.718815 C9.42324436,25.718815 9.13120084,26.0150728 9.13120084,26.3814969 C9.13120084,26.747921 9.42324436,27.0441788 9.78445608,27.0441788 Z M19.3296679,16.8778586 C18.5841884,17.252079 18.2921448,17.8290021 18.2921448,18.9906445 L19.5679139,19.3648649 L19.9291256,19.4740125 C20.1212595,19.4272349 20.6438637,19.3102911 20.9205365,19.247921 C21.104985,19.2089397 21.2894336,19.1309771 21.5046235,19.0296258 C21.5046235,19.0140333 21.5046235,18.9984407 21.5046235,18.9828482 C21.4892528,18.5540541 21.4661968,18.1486486 21.3816578,17.8757796 C21.1510972,17.1819127 20.5900662,16.7297297 19.9521817,16.7297297 C19.7369917,16.7297297 19.5294871,16.7765073 19.3296679,16.8778586 Z M19.3373532,24.7286902 L19.4756896,23.785343 C19.4756896,23.785343 18.338257,23.7073805 17.9616746,23.6528067 C17.7464846,23.6216216 17.2853633,23.512474 16.9472076,23.4345114 C16.7320176,23.3877339 16.5091423,23.5358628 16.4784009,23.7619543 L16.2708963,25.1340956 L18.361313,25.4537422 C18.8301197,25.5317048 19.268185,25.204262 19.3373532,24.7286902 Z M18.4304813,21.547817 C18.4304813,22.3742204 19.0837365,23.0369023 19.8906988,23.029106 C20.6976612,23.029106 21.3509164,22.3664241 21.3509164,21.547817 C21.3509164,20.72921 20.6976612,20.0665281 19.8906988,20.0665281 C19.0837365,20.0665281 18.4304813,20.72921 18.4304813,21.547817 Z M21.42777,25.4615385 L23.5181867,25.1418919 L23.3106821,23.7697505 C23.2799407,23.5358628 23.0647507,23.3877339 22.8418754,23.4423077 C22.4960344,23.5202703 22.0425984,23.6294179 21.8274085,23.6606029 C21.450826,23.7151767 20.3133934,23.7931393 20.3133934,23.7931393 L20.4517298,24.7364865 C20.520898,25.204262 20.9589633,25.5317048 21.42777,25.4615385 Z M29.9662002,27.0441788 C30.3274119,27.0441788 30.6194554,26.747921 30.6194554,26.3814969 C30.6194554,26.0150728 30.3274119,25.718815 29.9662002,25.718815 C29.6049885,25.718815 29.3129449,26.0150728 29.3129449,26.3814969 C29.3129449,26.747921 29.6049885,27.0441788 29.9662002,27.0441788 Z"/>
</svg>
