<svg xmlns="http://www.w3.org/2000/svg" width="25" height="40" viewBox="0 0 25 40">
  <path fill="#183757" d="M24.1594001,31.1434169 C24.179106,31.2485149 24.2053805,31.3470442 24.2185178,31.4521422 C23.0230281,34.1518468 18.2082265,34.1649841 16.9667565,31.5835147 L16.9667565,31.7411617 C15.3048946,35.1962581 8.90705454,35.2225326 7.21234947,31.6689068 C5.90519324,34.1649841 1.18235237,34.1321409 1.91846539e-13,31.4521422 C0.0262744972,31.3470442 0.0525489943,31.2419462 0.0722548672,31.1434169 C2.29244988,32.3848869 4.68999775,32.3586124 7.25832984,31.1434169 C10.2601911,32.8184161 13.5050915,32.785573 16.9733252,31.1434169 C19.5416573,32.365181 21.9392051,32.3848869 24.1594001,31.1434169 Z M10.9367594,30.5785152 C9.45881898,30.5522407 8.55234883,30.3486133 7.11382011,29.8691038 C6.47009493,27.1825364 6.47666355,27.5635166 4.88048785,24.9557728 C7.78381979,23.8194008 8.44068222,22.9851855 11.7906806,22.0984212 C15.3443063,23.0508718 19.1344026,24.9557728 19.1344026,24.9557728 C17.5447955,27.5635166 17.5513641,27.1825364 16.9010703,29.8691038 C15.4099926,30.2763585 14.1685226,30.4931231 12.7168566,30.5522407 L11.7775434,28.5947907 L10.9367594,30.5785152 Z M11.8235237,19.7205792 C11.3228941,19.7205792 10.9170536,19.3147387 10.9170536,18.8141091 C10.9170536,18.3134794 11.3228941,17.9076389 11.8235237,17.9076389 C12.3241534,17.9076389 12.7299939,18.3134794 12.7299939,18.8141091 C12.7299939,19.3147387 12.3241534,19.7205792 11.8235237,19.7205792 Z M11.8235237,20.1803829 C12.1782294,20.1803829 12.500092,20.0424418 12.7365625,19.8256772 L12.5263665,20.9160689 C12.500092,21.2970491 12.1847981,21.5926372 11.8038179,21.5926372 C11.4228376,21.5926372 11.1075437,21.2904804 11.0812692,20.9160689 L10.8710732,19.7928341 C11.1141123,20.0293046 11.4556808,20.1803829 11.8235237,20.1803829 Z M19.1344026,18.0061683 L18.81254,19.7468537 L19.1409712,22.1641075 L19.1409712,24.1741065 L13.6036209,21.8619508 L13.3014642,21.7634214 C13.5445033,21.454696 13.689013,21.0671472 13.689013,20.6401866 C13.689013,20.1081281 13.4591112,19.6351871 13.0978368,19.3001873 C13.1569545,19.1491089 13.1897976,18.9848933 13.1897976,18.8141091 C13.1897976,18.7484228 13.1766603,18.6893052 13.1700917,18.623619 L17.8009718,18.623619 L17.8009718,17.5463646 L6.53578117,17.5595018 L6.53578117,18.623619 L10.4638185,18.623619 C10.4572499,18.6827366 10.4441126,18.7418542 10.4441126,18.8009718 C10.4441126,18.9980306 10.4835244,19.181952 10.5623479,19.3461677 C10.227348,19.6745989 10.0237207,20.1344026 10.0237207,20.6401866 C10.0237207,21.0737158 10.1682304,21.4612647 10.4178381,21.7765586 L9.9514658,21.9670487 L4.95931134,24.2463614 L4.95931134,21.5663627 L5.28774256,19.7468537 L4.95931134,18.04558 L4.97244859,16.8238159 L19.1212653,16.8500904 L19.1344026,18.0061683 Z M8.52607433,13.8350919 L15.2917574,13.8350919 L15.7778356,16.0815614 L8.03999613,16.0815614 L8.52607433,13.8350919 Z M15.0421496,9.03999613 L15.6924434,11.4966616 L15.2917574,13.0271511 L8.50636846,13.0337197 L8.09911375,11.5032302 L8.74940756,9.03342751 L10.279897,9.03342751 L10.6608772,7.64744778 L11.4491121,7.64744778 L11.4491121,6.98401673 L8.88734867,6.98401673 L8.88734867,6.22205631 L10.9696026,6.22205631 L10.9696026,5.1382333 L11.4491121,5.1382333 L11.4491121,4.56676299 L10.9696026,4.56676299 L10.9696026,3.20048914 L11.4491121,3.20048914 L11.4491121,1.2430391 L11.6067591,1 L12.1256804,1 L12.2964647,1.2430391 L12.2964647,3.20048914 L12.762837,3.20048914 L12.762837,4.56676299 L12.2964647,4.56676299 L12.2964647,5.1382333 L12.762837,5.1382333 L12.762837,6.22205631 L14.8450909,6.22205631 L14.8450909,6.98401673 L12.2898961,6.98401673 L12.2898961,7.64744778 L13.0715623,7.64744778 L13.4459739,9.03999613 L15.0421496,9.03999613 Z M10.8645046,10.9448972 L11.1863672,9.72970169 L9.5179366,9.72970169 L9.19607401,10.9448972 L10.8645046,10.9448972 Z M12.9533271,10.9448972 L14.6217577,10.9448972 L14.2998951,9.72970169 L12.6314645,9.72970169 L12.9533271,10.9448972 Z"/>
</svg>
