<?xml version="1.0" encoding="UTF-8"?>
<svg width="52px" height="40px" viewBox="0 0 52 40" version="1.1" xmlns="http://www.w3.org/2000/svg" xmlns:xlink="http://www.w3.org/1999/xlink">
    <defs>
        <polygon id="path-1" points="0.6001 0.1395 5.0661 0.1395 5.0661 6 0.6001 6"></polygon>
        <polygon id="path-3" points="0.1594 0.0392 3.7244 0.0392 3.7244 6 0.1594 6"></polygon>
        <polygon id="path-5" points="0.6625 0.1398 4.886 0.1398 4.886 5.8998 0.6625 5.8998"></polygon>
        <polygon id="path-7" points="0.3683 0.263 8.8833 0.263 8.8833 8.7789 0.3683 8.7789"></polygon>
    </defs>
    <g id="logo/-logo-hor-standard" stroke="none" stroke-width="1" fill="none" fill-rule="evenodd">
        <g id="Group-35" transform="translate(0.500000, 0.000000)">
            <path d="M1.4861,36.1749 L1.1191,36.1749 L1.1191,37.7359 L1.4361,37.7359 C2.2871,37.7359 2.6471,37.4589 2.6471,36.9429 C2.6471,36.4489 2.2371,36.1749 1.4861,36.1749 M1.3611,33.7619 L1.1191,33.7619 L1.1191,35.3069 L1.3531,35.3069 C2.1461,35.3069 2.5131,34.9969 2.5131,34.4799 C2.5131,34.0369 2.1881,33.7619 1.3611,33.7619 M2.6051,35.6649 L2.6051,35.6819 C3.1471,35.7899 3.7991,36.2159 3.7991,37.0179 C3.7991,37.9699 3.0891,38.6379 1.4361,38.6379 L0.0001,38.6379 L0.0001,32.8759 L1.3611,32.8759 C3.0471,32.8759 3.6401,33.4619 3.6401,34.3969 C3.6401,35.2229 3.0971,35.5149 2.6051,35.6649" id="Fill-1" fill="#004972"></path>
            <g id="Group-5" transform="translate(4.000000, 32.737200)">
                <mask id="mask-2" fill="white">
                    <use xlink:href="#path-1"></use>
                </mask>
                <g id="Clip-4"></g>
                <path d="M5.0661,3.4865 C5.0661,5.1735 4.3151,6.0005 2.7951,6.0005 C1.2761,6.0005 0.6001,5.2235 0.6001,3.4865 L0.6001,0.1395 L1.7181,0.1395 L1.7181,3.5205 C1.7181,4.5895 2.0771,5.0565 2.8371,5.0565 C3.6301,5.0565 3.9891,4.6055 3.9891,3.5205 L3.9891,0.1395 L5.0661,0.1395 L5.0661,3.4865 Z" id="Fill-3" fill="#004972" mask="url(#mask-2)"></path>
            </g>
            <polygon id="Fill-6" fill="#004972" points="14.6003 38.6368 13.6403 38.6368 11.2693 35.0388 11.2523 35.0388 11.2523 38.6368 10.1343 38.6368 10.1343 32.8768 11.0943 32.8768 13.4653 36.4498 13.4813 36.4498 13.4813 32.8768 14.6003 32.8768"></polygon>
            <path d="M16.8454,33.8028 L16.8454,37.7098 L17.0294,37.7098 C18.3984,37.7098 19.1244,37.1518 19.1244,35.6728 C19.1244,34.2868 18.4394,33.8028 17.1044,33.8028 L16.8454,33.8028 Z M15.7264,38.6368 L15.7264,32.8758 L17.1044,32.8758 C19.2914,32.8758 20.2934,33.6868 20.2934,35.6728 C20.2934,37.7518 19.0414,38.6368 17.0294,38.6368 L15.7264,38.6368 Z" id="Fill-8" fill="#004972"></path>
            <polygon id="Fill-10" fill="#004972" points="24.4499 33.795 22.2879 33.795 22.2879 35.273 24.2909 35.273 24.2909 36.191 22.2879 36.191 22.2879 37.719 24.7249 37.719 24.6589 38.637 21.1689 38.637 21.1689 32.877 24.5169 32.877"></polygon>
            <g id="Group-14" transform="translate(25.000000, 32.737200)">
                <mask id="mask-4" fill="white">
                    <use xlink:href="#path-3"></use>
                </mask>
                <g id="Clip-13"></g>
                <path d="M3.1394,1.3752 C3.0054,1.2672 2.6634,0.9752 2.1124,0.9752 C1.5784,0.9752 1.3364,1.2082 1.3364,1.4922 C1.3364,1.8512 1.5024,2.0252 1.9704,2.3102 L2.5964,2.6932 C3.3814,3.1792 3.7244,3.6372 3.7244,4.3722 C3.7244,5.1732 3.1564,6.0002 1.7614,6.0002 C0.8354,6.0002 0.3514,5.6002 0.1594,5.4402 L0.5264,4.5062 C0.7184,4.6982 1.1434,5.0482 1.7444,5.0482 C2.3384,5.0482 2.6134,4.7982 2.6134,4.5142 C2.6134,4.1302 2.4464,3.9302 2.0044,3.6372 L1.3774,3.2202 C0.5844,2.6932 0.2424,2.2852 0.2424,1.5172 C0.2424,0.6992 0.9264,0.0392 2.0794,0.0392 C2.8884,0.0392 3.3064,0.3562 3.4904,0.4902 L3.1394,1.3752 Z" id="Fill-12" fill="#004972" mask="url(#mask-4)"></path>
            </g>
            <polygon id="Fill-15" fill="#004972" points="34.5505 38.6368 33.6235 38.6368 32.5055 34.7388 32.4885 34.7388 31.3785 38.6368 30.4515 38.6368 28.8905 32.8768 30.1095 32.8768 30.9775 36.8598 30.9945 36.8598 32.0215 32.8768 33.0815 32.8768 34.0915 36.8598 34.1085 36.8598 34.9845 32.8768 36.1205 32.8768"></polygon>
            <polygon id="Fill-17" fill="#004972" points="39.9685 33.795 37.8055 33.795 37.8055 35.273 39.8095 35.273 39.8095 36.191 37.8055 36.191 37.8055 37.719 40.2435 37.719 40.1775 38.637 36.6875 38.637 36.6875 32.877 40.0355 32.877"></polygon>
            <polygon id="Fill-19" fill="#004972" points="45.5363 38.6368 44.4173 38.6368 44.4173 36.1908 42.1213 36.1908 42.1213 38.6368 41.0033 38.6368 41.0033 32.8768 42.1213 32.8768 42.1213 35.2728 44.4173 35.2728 44.4173 32.8768 45.5363 32.8768"></polygon>
            <g id="Group-23" transform="translate(46.000000, 32.737200)">
                <mask id="mask-6" fill="white">
                    <use xlink:href="#path-5"></use>
                </mask>
                <g id="Clip-22"></g>
                <path d="M2.0315,1.0578 L1.7805,1.0578 L1.7805,2.9198 L1.9895,2.9198 C2.8325,2.9198 3.2335,2.5608 3.2335,1.9428 C3.2335,1.3498 2.8495,1.0578 2.0315,1.0578 L2.0315,1.0578 Z M3.5675,5.8998 L2.3405,3.7958 C2.2315,3.8048 2.1065,3.8048 1.9895,3.8048 L1.7805,3.8048 L1.7805,5.8998 L0.6625,5.8998 L0.6625,0.1398 L2.0315,0.1398 C3.6515,0.1398 4.4025,0.7738 4.4025,1.9348 C4.4025,2.6438 4.0685,3.2118 3.4095,3.5288 L4.8865,5.8998 L3.5675,5.8998 Z" id="Fill-21" fill="#004972" mask="url(#mask-6)"></path>
            </g>
            <path d="M38.5188,18.4835 L38.5188,9.7455 C36.1428,10.6435 31.6938,11.7355 27.3818,12.2445 C27.3878,12.1975 27.3948,12.1495 27.4008,12.1025 L27.3798,12.1065 L27.5448,11.0725 C27.5718,10.8955 27.5988,10.7185 27.6288,10.5415 L27.7548,9.7545 C28.1548,7.2385 29.2618,3.5875 30.2318,1.0005 L20.9088,1.0005 C21.8058,3.3755 23.1478,7.9375 23.6568,12.2495 C19.3448,11.7405 14.7818,10.6435 12.4068,9.7455 L12.4058,14.5905 L12.4068,18.4835 C14.7818,17.5875 19.4788,16.3645 23.7918,15.8565 C23.2828,20.1695 22.0498,24.7315 21.1538,27.1065 L29.8928,27.1065 C28.9968,24.7315 27.7858,20.1695 27.2768,15.8565 C31.5888,16.3645 36.1428,17.5875 38.5188,18.4835" id="Fill-24" fill="#9EB4C3"></path>
            <g id="Group-28" transform="translate(12.000000, 0.737200)">
                <mask id="mask-8" fill="white">
                    <use xlink:href="#path-7"></use>
                </mask>
                <g id="Clip-27"></g>
                <path d="M3.6233,0.2629 C4.1043,1.8559 4.6863,3.5809 4.8753,4.7709 C3.6873,4.5809 1.9603,3.9979 0.3683,3.5179 L0.4023,6.3129 C3.1273,7.3819 6.4753,8.3959 8.8833,8.7789 C8.5003,6.3699 7.4883,3.0219 6.4173,0.2969 L3.6233,0.2629 Z" id="Fill-26" fill="#004972" mask="url(#mask-8)"></path>
            </g>
            <path d="M38.5188,4.255 C36.9268,4.736 35.2008,5.318 34.0118,5.507 C34.2008,4.319 34.7838,2.593 35.2638,1.001 L32.4698,1.035 C31.3998,3.759 30.3868,7.108 30.0038,9.515 C32.4118,9.132 35.7598,8.12 38.4848,7.049 L38.5188,4.255 Z" id="Fill-29" fill="#004972"></path>
            <path d="M35.2634,27.1163 C34.7834,25.5243 34.2004,23.7983 34.0114,22.6093 C35.2004,22.7983 36.9264,23.3813 38.5184,23.8623 L38.4844,21.0673 C35.7604,19.9973 32.4114,18.9843 30.0034,18.6003 C30.3864,21.0093 31.3984,24.3583 32.4694,27.0823 L35.2634,27.1163 Z" id="Fill-31" fill="#004972"></path>
            <path d="M12.3684,23.8614 C13.9604,23.3814 15.6874,22.7994 16.8754,22.6094 C16.6864,23.7984 16.1034,25.5234 15.6234,27.1154 L18.4174,27.0814 C19.4884,24.3584 20.5004,21.0094 20.8834,18.6014 C18.4754,18.9844 15.1264,19.9964 12.4024,21.0674 L12.3684,23.8614 Z" id="Fill-33" fill="#004972"></path>
        </g>
    </g>
</svg>